<?xml version="1.0" encoding="utf-8"?>
<!-- Generator: Adobe Illustrator 22.0.1, SVG Export Plug-In . SVG Version: 6.00 Build 0)  -->
<svg version="1.1" id="レイヤー_1" xmlns="http://www.w3.org/2000/svg" xmlns:xlink="http://www.w3.org/1999/xlink" x="0px"
	 y="0px" viewBox="0 0 648.2 134" style="enable-background:new 0 0 648.2 134;" xml:space="preserve">
<style type="text/css">
	.st0{fill:#FFFFFF;}
	.st1{fill:#11006A;}
</style>
<path class="st0" d="M74.5,99.2c0,1.8,0,6.6,0,9.3c0,1.5-0.5,2.4-1.4,3.2c-6.5,5.3-14.9,8.6-23.9,8.6c-21,0-37.9-17.1-37.9-38
	s16.8-37.7,37.9-37.7c9,0,17.4,3,24.1,8.4c0.6,0.6,1.2,1.5,1.2,3c0,2.6,0,7.2,0,8.3c0,2.3-0.9,3.3-3.3,0.3c-5.3-6.5-13.1-11-22-11
	C33.6,53.5,21,66.6,21,82.2s12.6,29,28.3,29c9.5,0,17.7-5.3,22.9-12.5C73,97.6,74.5,96.7,74.5,99.2z"/>
<path class="st0" d="M183.9,51.3v65.4c0,2.7-2.2,4.9-4.9,4.9h-0.3c-2.7,0-4.9-2.2-4.9-4.9V51.3c0-2.7,2.2-4.9,4.9-4.9h0.3
	C181.7,46.4,183.9,48.6,183.9,51.3z"/>
<path class="st0" d="M265.8,75.6v41.1c0,2.7-2.2,4.9-4.9,4.9h-0.3c-2.7,0-4.9-2.2-4.9-4.9V76.2c0-15.5-11.8-22.3-22.6-22.3
	c-14.3,0-21.2,6.4-21.2,19.5v43.3c0,2.7-2.2,4.9-4.9,4.9h-0.5c-2.7,0-4.9-2.2-4.9-4.9l-0.2-65.6c0-2.7,2.2-4.7,4.9-4.7h0.6
	c2.4,0,4.7,1.7,4.7,4.7c0,0.5,0,0.2,0,0.5c0,0.8,0.8,0.9,1.3,0.5c5.3-6,14-7.5,20.1-7.5C247.4,44.5,265.8,51.3,265.8,75.6z"/>
<path class="st0" d="M345.1,101.6c0,1.9,0,6.9,0,9.7c0,1.6-0.5,2.5-1.4,3.3c-6.7,5.5-15.5,8.9-25,8.9c-22,0-39.6-17.9-39.6-39.7
	s17.6-39.4,39.6-39.4c9.4,0,18.2,3.1,25.1,8.8c0.6,0.6,1.3,1.6,1.3,3.1c0,2.7,0,7.5,0,8.6c0,2.4-0.9,3.5-3.5,0.3
	c-5.5-6.7-13.7-11.5-22.9-11.5c-16.3,0-29.5,13.7-29.5,30s13.2,30.3,29.5,30.3c9.9,0,18.5-5.5,23.9-13
	C343.5,99.9,345.1,99,345.1,101.6z"/>
<path class="st0" d="M509.1,51.3v41c0,24.3-17,31.4-31.2,31.4c-14.3,0-31.4-7.1-31.4-31.4v-41c0-2.7,2.2-4.9,4.9-4.9h0.5
	c2.7,0,4.9,2.2,4.9,4.9v40.3c0,15.5,10.4,22.6,21.2,22.6c11,0,21.2-7.1,21.2-22.6V51.3c0-2.7,2.2-4.9,4.9-4.9h0.3
	C506.9,46.4,509.1,48.6,509.1,51.3z"/>
<path class="st0" d="M589,75.6v41.1c0,2.7-2.2,4.9-4.9,4.9h-0.3c-2.7,0-4.9-2.2-4.9-4.9V76.2c0-15.5-11.8-22.3-22.6-22.3
	c-14.3,0-21.2,6.4-21.2,19.5v43.3c0,2.7-2.2,4.9-4.9,4.9h-0.5c-2.7,0-4.9-2.2-4.9-4.9l-0.2-65.6c0-2.7,2.2-4.7,4.9-4.7h0.6
	c2.4,0,4.7,1.7,4.7,4.7c0,0.5,0,0.2,0,0.5c0,0.8,0.8,0.9,1.3,0.5c5.3-6,14-7.5,20.1-7.5C570.6,44.5,589,51.3,589,75.6z"/>
<path class="st0" d="M638.1,51.3v0.3c0,2.7-2.2,4.9-4.9,4.9H626c-1.6,0-2,0.3-2,1.7v58.5c0,2.7-2.2,4.9-4.9,4.9h-0.3
	c-2.7,0-4.9-2.2-4.9-4.9V58.3c0-1-0.8-1.9-1.9-1.9h-7.4c-2.7,0-4.9-2.2-4.9-4.9v-0.3c0-2.7,2.2-4.9,4.9-4.9h7.4
	c1.3,0,1.9-0.9,1.9-2.5v-32c0-2.7,2.2-4.9,4.9-4.9h0.3c2.7,0,4.9,2.2,4.9,4.9v32.5c0,1.1,0.9,2,2,2h7.2
	C635.9,46.4,638.1,48.6,638.1,51.3z"/>
<g>
	<path class="st0" d="M122.8,52.2c17.9,0,32.6,13.6,34.4,30.9c0.1-1.1,0.2-2.3,0.2-3.5c0-19-15.4-34.4-34.6-34.4
		c-19.4,0-35.1,16.2-34.4,35.7c0,0.7,0.1,1.5,0.2,2.2C90.3,65.8,104.9,52.2,122.8,52.2z"/>
	<path class="st1" d="M122.2,115.9c-17.5-0.3-32.2-14-33.7-31.3c-0.1,1.4-0.2,2.9-0.1,4.3C89,107,104,121.7,122.2,122
		c19.4,0.3,35.1-15.2,35.1-34.4c0-1-0.1-2-0.1-3.1C155.6,102.3,140.5,116.2,122.2,115.9z"/>
	<path class="st0" d="M157.2,80"/>
	<path class="st0" d="M157.2,86.6"/>
</g>
<g>
	<path class="st0" d="M394.8,52.2c17.9,0,32.6,13.6,34.4,30.9c0.1-1.1,0.2-2.3,0.2-3.5c0-19-15.4-34.4-34.6-34.4
		c-19.4,0-35.1,16.2-34.4,35.7c0,0.7,0.1,1.5,0.2,2.2C362.3,65.8,376.9,52.2,394.8,52.2z"/>
	<path class="st1" d="M394.2,115.9c-17.5-0.3-32.2-14-33.7-31.3c-0.1,1.4-0.2,2.9-0.1,4.3C361,107,376,121.7,394.2,122
		c19.4,0.3,35.1-15.2,35.1-34.4c0-1-0.1-2-0.1-3.1C427.6,102.3,412.5,116.2,394.2,115.9z"/>
	<path class="st0" d="M429.2,80"/>
	<path class="st0" d="M429.2,86.6"/>
</g>
</svg>
